<svg xmlns="http://www.w3.org/2000/svg" xmlns:xlink="http://www.w3.org/1999/xlink" width="36" height="36" viewBox="0 0 31 31"><defs><circle id="a" cx="15.885" cy="15.115" r="15.115"/></defs><g fill="none" fill-rule="evenodd"><mask id="b" fill="#fff"><use xlink:href="#a"/></mask><use fill="#314979" fill-rule="nonzero" xlink:href="#a"/><g mask="url(#b)"><g transform="translate(-9.62 7.557)" fill-rule="nonzero"><path fill="#FFF" stroke="#FFF" stroke-width=".3" d="M28.34 11.336h-4.062a.203.203 0 0 1-.189-.189c0-.094.094-.189.189-.189h4.062c.189 0 1.228-.283 1.323-1.606.094-1.228-.662-1.417-.756-1.417h-2.645c-1.04-.189-1.228-1.133-1.228-1.606 0-1.322 1.133-1.89 1.7-1.984h3.779c.094 0 .189.095.189.19a.203.203 0 0 1-.19.188H26.83c-.19 0-1.323.378-1.323 1.606 0 0-.094.945.85 1.134h2.55s1.323.094 1.229 1.89c-.189 1.322-1.228 1.889-1.795 1.983zm7.652 0h-3.779c-.472-.094-1.417-.378-1.511-1.323 0-.944.661-3.967.661-4.156 0-.095.567-1.512 1.795-1.512h2.834c.094 0 1.133.378 1.133 1.323 0 .85-.283 2.173-.283 2.267a.203.203 0 0 1-.189.19h-5.29c-.095.755-.283 1.51-.189 1.888 0 .756.945.85 1.04.85h3.778c.094 0 .189.095.189.19.094.189 0 .283-.19.283zm-4.157-5.29c0 .094-.189.85-.378 1.606h5.007c.095-.378.19-1.323.19-1.984 0-.567-.662-.756-.757-.85h-2.645c-.85 0-1.322 1.133-1.417 1.228zm-14.737 8.407c-.188 0-.283-.189-.188-.283 0 0 .377-2.078.755-4.062.19-1.04.378-2.078.473-2.834.094-.378.094-.661.189-.945 0-.189.094-.283.094-.378.283-.755 1.04-1.511 1.7-1.606h2.74c.189 0 1.417.473 1.322 1.417l-.66 3.968c0 .095-.379 1.228-1.512 1.606h-.095l-2.361.094s-.756-.094-1.417-.85c-.284 1.417-.473 2.834-.662 3.684-.189.095-.283.19-.378.19zm1.04-4.534c.472.945 1.228 1.04 1.322 1.04l2.362-.095c.85-.284 1.133-1.134 1.133-1.228l.662-3.968c.094-.472-.567-.945-.85-.945h-2.551c-.378.095-1.134.662-1.323 1.323-.094.189-.378 1.89-.755 3.873z"/><circle cx="13.32" cy="3.306" r="1" fill="#EBB532" stroke="#EBB532" stroke-width=".2"/><circle cx="11.808" cy="1.134" r="1" fill="#EBB532" stroke="#EBB532" stroke-width=".2"/><circle cx="10.391" cy="3.306" r="1" fill="#EBB532"/><circle cx="13.225" cy="12.186" r="1" fill="#EBB532" stroke="#EBB532" stroke-width=".2"/><circle cx="11.808" cy="10.108" r="1" fill="#EBB532" stroke="#EBB532" stroke-width=".2"/><circle cx="10.391" cy="12.186" r="1" fill="#EBB532"/><circle cx="11.808" cy="14.453" r="1" fill="#EBB532" stroke="#EBB532" stroke-width=".2"/><path fill="#EBB532" stroke="#EBB532" stroke-width=".2" d="M7.841 7.652h9.636v1H7.841zm1.606-2.267h3.023v1H9.447z"/><path fill="#EBB532" stroke="#EBB532" stroke-width=".2" d="M13.698 8.03l-1.606-2.645h.472L14.17 8.03zm-1.323 1.889h1.511v1h-1.511z"/><path fill="#EBB532" stroke="#EBB532" stroke-width=".2" d="M13.509 10.297l1.417-2.267h.378l-1.417 2.267z"/></g></g></g></svg>